<svg xmlns="http://www.w3.org/2000/svg" width="1600" height="500" viewBox="0 0 1600 500" role="img" aria-label="X1 Smarters Panel"><defs><linearGradient id="bg" x1="0" y1="0" x2="1" y2="1"><stop stop-color="#02060A"/><stop offset=".55" stop-color="#07121B"/><stop offset="1" stop-color="#02070D"/></linearGradient><linearGradient id="x" x1="0" x2="1"><stop stop-color="#19F6FF"/><stop offset=".45" stop-color="#4AA8FF"/><stop offset="1" stop-color="#7B5CFF"/></linearGradient><radialGradient id="r"><stop stop-color="#7B5CFF" stop-opacity=".18"/><stop offset="1" stop-color="#7B5CFF" stop-opacity="0"/></radialGradient><pattern id="grid" width="34" height="34" patternUnits="userSpaceOnUse"><path d="M34 0H0V34" fill="none" stroke="#8FB3BF" stroke-opacity=".05"/></pattern><filter id="glow"><feGaussianBlur stdDeviation="8" result="b"/><feMerge><feMergeNode in="b"/><feMergeNode in="SourceGraphic"/></feMerge></filter></defs><rect width="1600" height="500" rx="30" fill="url(#bg)"/><rect width="1600" height="500" rx="30" fill="url(#grid)"/><circle cx="1260" cy="230" r="360" fill="url(#r)"/><path d="M0 78H430L496 12M0 422H430L496 488M1600 78H1240L1174 12M1600 422H1240L1174 488" fill="none" stroke="#183440" stroke-width="2"/><g transform="translate(78 66)"><text x="0" y="40" font-family="Arial,Helvetica,sans-serif" font-size="14" font-weight="700" letter-spacing="5" fill="#6ED8EA">X1 // PUBLIC TV EXPERIENCE</text><text x="0" y="150" font-family="Arial Black,Arial,sans-serif" font-size="132" font-weight="900" letter-spacing="-10" fill="url(#x)" filter="url(#glow)">X1</text><text x="220" y="143" font-family="Arial Black,Arial,sans-serif" font-size="57" font-weight="900" fill="#F6FCFF">SMARTERS</text><text x="220" y="195" font-family="Arial,Helvetica,sans-serif" font-size="24" font-weight="700" letter-spacing="4" fill="#8FB3BF">RUNTIME EXPERIENCE CONTROL</text><text x="0" y="270" font-family="Arial Black,Arial,sans-serif" font-size="42" fill="#FFFFFF">DEFINE. DELIVER. VALIDATE.</text><text x="0" y="310" font-family="Arial,Helvetica,sans-serif" font-size="20" fill="#9DB8C3">Runtime config · pairing · services · APK operations · diagnostics.</text><g transform="translate(0 347)" font-family="Arial,Helvetica,sans-serif" font-size="13" font-weight="700" letter-spacing="2"><rect width="168" height="48" rx="9" fill="#071921" stroke="#19E8FF"/><text x="28" y="30" fill="#DFFBFF">PUBLIC / FREE</text><rect x="184" width="178" height="48" rx="9" fill="#08131B" stroke="#4AA8FF"/><text x="213" y="30" fill="#DFFBFF">SELF-HOSTED</text><rect x="378" width="194" height="48" rx="9" fill="#09121C" stroke="#7B5CFF"/><text x="408" y="30" fill="#DFFBFF">BUILD-AWARE</text></g></g><g transform="translate(1048 78)" font-family="Arial,Helvetica,sans-serif"><rect width="458" height="326" rx="24" fill="#071018" stroke="#42DFFF" stroke-width="2"/><rect x="22" y="22" width="414" height="42" rx="9" fill="#0A1821"/><circle cx="45" cy="43" r="5" fill="#19E8FF"/><text x="62" y="49" font-size="13" font-weight="700" letter-spacing="2" fill="#CFF9FF">X1 TV EXPERIENCE SURFACE</text><text x="412" y="49" text-anchor="end" font-size="12" fill="#9C8CFF">VALIDATE</text><g transform="translate(22 84)"><rect width="122" height="96" rx="12" fill="#08151D" stroke="#173745"/><text x="16" y="25" font-size="10" letter-spacing="2" fill="#6ED8EA">CONFIG</text><text x="16" y="61" font-size="27" font-weight="900" fill="#F4FCFF">STATE</text><path d="M88 52h20M88 64h20M88 76h20" stroke="#19E8FF" stroke-width="3"/></g><g transform="translate(158 84)"><rect width="122" height="96" rx="12" fill="#08151D" stroke="#173745"/><text x="16" y="25" font-size="10" letter-spacing="2" fill="#70C7FF">PAIRING</text><text x="16" y="61" font-size="25" font-weight="900" fill="#F4FCFF">READY</text><circle cx="96" cy="61" r="12" fill="none" stroke="#4AA8FF" stroke-width="3"/></g><g transform="translate(294 84)"><rect width="120" height="96" rx="12" fill="#08151D" stroke="#173745"/><text x="16" y="25" font-size="10" letter-spacing="2" fill="#A897FF">APK LAB</text><text x="16" y="61" font-size="25" font-weight="900" fill="#F4FCFF">BUILD</text><path d="M91 48v25M80 61h22" stroke="#7B5CFF" stroke-width="3"/></g><g transform="translate(22 198)"><rect width="392" height="96" rx="12" fill="#06121A" stroke="#173745"/><text x="16" y="25" font-size="10" letter-spacing="2" fill="#6ED8EA">RUNTIME SIGNAL</text><path d="M22 61H82L102 40L128 77L155 52H211L238 31L267 76L293 52H366" fill="none" stroke="url(#x)" stroke-width="4"/><circle cx="366" cy="52" r="6" fill="#7B5CFF"/></g></g><text x="800" y="470" text-anchor="middle" font-family="Arial,Helvetica,sans-serif" font-size="13" font-weight="700" letter-spacing="5" fill="#6FBDCB">PUBLIC SOFTWARE · PRIVATE ENGINEERING · ONE X1 IDENTITY</text></svg>