<svg xmlns="http://www.w3.org/2000/svg" width="1600" height="460" viewBox="0 0 1600 460" role="img" aria-label="X1 Smarters Runtime Experience">
  <defs>
    <linearGradient id="bg" x1="0" x2="1"><stop stop-color="#05070a"/><stop offset="1" stop-color="#101720"/></linearGradient>
    <linearGradient id="accent" x1="0" x2="1"><stop stop-color="#55f6ff"/><stop offset=".55" stop-color="#4aa8ff"/><stop offset="1" stop-color="#8a6dff"/></linearGradient>
    <filter id="glow"><feGaussianBlur stdDeviation="7" result="b"/><feMerge><feMergeNode in="b"/><feMergeNode in="SourceGraphic"/></feMerge></filter>
  </defs>
  <rect width="1600" height="460" rx="28" fill="url(#bg)"/>
  <path d="M0 64h420l52-52M1600 64h-370l-52-52M0 396h420l52 52M1600 396h-370l-52 52" stroke="#243847" stroke-width="2"/>
  <g transform="translate(90 88)">
    <text x="0" y="74" font-family="Arial Black,Arial,sans-serif" font-size="92" fill="url(#accent)" letter-spacing="-6" filter="url(#glow)">X1</text>
    <text x="0" y="132" font-family="Arial,Helvetica,sans-serif" font-size="22" fill="#b8d9e7" letter-spacing="7">SMARTERS PANEL</text>
    <text x="0" y="201" font-family="Arial Black,Arial,sans-serif" font-size="48" fill="#fff">RUNTIME EXPERIENCE CONTROL</text>
    <text x="0" y="247" font-family="Arial,Helvetica,sans-serif" font-size="24" fill="#a8c1cd">Configure the application surface. Validate the Android result.</text>
    <g transform="translate(0 292)" font-family="Arial,Helvetica,sans-serif" font-size="18" fill="#e9fbff">
      <rect width="176" height="52" rx="11" fill="#0b141c" stroke="#55f6ff"/><text x="40" y="33">BRANDING</text>
      <rect x="194" width="176" height="52" rx="11" fill="#0b141c" stroke="#4aa8ff"/><text x="244" y="33">PAIRING</text>
      <rect x="388" width="176" height="52" rx="11" fill="#0b141c" stroke="#5c8cff"/><text x="447" y="33">SERVICES</text>
      <rect x="582" width="176" height="52" rx="11" fill="#0b141c" stroke="#8a6dff"/><text x="626" y="33">APK LAB</text>
    </g>
  </g>
  <g transform="translate(1160 115)" stroke="url(#accent)" fill="none" stroke-width="4">
    <rect x="0" y="0" width="260" height="150" rx="18"/>
    <path d="M96 180h68M130 150v30"/>
    <rect x="45" y="42" width="170" height="66" rx="9"/>
    <path d="M65 64h82M65 84h118"/>
    <circle cx="198" cy="75" r="9" fill="#55f6ff" stroke="none"/>
  </g>
  <text x="1510" y="430" text-anchor="end" font-family="Arial,Helvetica,sans-serif" font-size="15" fill="#6aa9ba" letter-spacing="5">X1 // TV EXPERIENCE</text>
</svg>
